<?xml version="1.0" encoding="UTF-8"?>
<!--Generator: Apple Native CoreSVG 326-->
<!DOCTYPE svg
PUBLIC "-//W3C//DTD SVG 1.1//EN"
       "http://www.w3.org/Graphics/SVG/1.1/DTD/svg11.dtd">
<svg version="1.1" xmlns="http://www.w3.org/2000/svg" xmlns:xlink="http://www.w3.org/1999/xlink" viewBox="0 0 753.906 761.23">
 <g>
  <rect height="761.23" opacity="0" width="753.906" x="0" y="0"/>
  <path d="M0 310.547C0 481.934 139.16 620.605 310.547 620.605C376.465 620.605 437.012 600.098 487.305 564.941L668.945 747.07C679.199 756.836 691.895 761.23 705.078 761.23C733.398 761.23 753.906 739.746 753.906 711.426C753.906 697.754 748.535 685.547 740.234 676.27L559.57 495.117C598.145 443.359 620.605 379.883 620.605 310.547C620.605 139.16 481.934 0 310.547 0C139.16 0 0 139.16 0 310.547ZM75.1953 310.547C75.1953 180.176 180.176 75.1953 310.547 75.1953C440.43 75.1953 545.898 180.176 545.898 310.547C545.898 440.43 440.43 545.898 310.547 545.898C180.176 545.898 75.1953 440.43 75.1953 310.547Z" fill="white"/>
 </g>
</svg>
